<?xml version="1.0" encoding="UTF-8"?>
<svg width="512" height="512" viewBox="0 0 512 512" fill="none" xmlns="http://www.w3.org/2000/svg">
  <!-- Background gradient circle -->
  <defs>
    <linearGradient id="backgroundGradient" x1="0%" y1="0%" x2="100%" y2="100%">
      <stop offset="0%" style="stop-color:#667eea;stop-opacity:1" />
      <stop offset="50%" style="stop-color:#764ba2;stop-opacity:1" />
      <stop offset="100%" style="stop-color:#f093fb;stop-opacity:1" />
    </linearGradient>
    
    <linearGradient id="letterGradient" x1="0%" y1="0%" x2="100%" y2="100%">
      <stop offset="0%" style="stop-color:#ffffff;stop-opacity:1" />
      <stop offset="100%" style="stop-color:#f8fafc;stop-opacity:0.9" />
    </linearGradient>
    
    <linearGradient id="waveGradient" x1="0%" y1="0%" x2="100%" y2="0%">
      <stop offset="0%" style="stop-color:#10b981;stop-opacity:0.8" />
      <stop offset="50%" style="stop-color:#3b82f6;stop-opacity:0.6" />
      <stop offset="100%" style="stop-color:#8b5cf6;stop-opacity:0.4" />
    </linearGradient>
    
    <!-- Subtle glow filter -->
    <filter id="glow" x="-50%" y="-50%" width="200%" height="200%">
      <feGaussianBlur stdDeviation="4" result="coloredBlur"/>
      <feMerge> 
        <feMergeNode in="coloredBlur"/>
        <feMergeNode in="SourceGraphic"/>
      </feMerge>
    </filter>
  </defs>
  
  <!-- Main background circle -->
  <circle cx="256" cy="256" r="240" fill="url(#backgroundGradient)" filter="url(#glow)"/>
  
  <!-- Healing wave patterns -->
  <g opacity="0.3">
    <!-- Outer wave -->
    <path d="M 80 256 Q 130 200 180 256 T 280 256 T 380 256 T 432 256" 
          stroke="url(#waveGradient)" stroke-width="3" fill="none" opacity="0.6"/>
    <!-- Middle wave -->
    <path d="M 90 280 Q 140 230 190 280 T 290 280 T 390 280 T 422 280" 
          stroke="url(#waveGradient)" stroke-width="2" fill="none" opacity="0.4"/>
    <!-- Inner wave -->
    <path d="M 100 304 Q 150 260 200 304 T 300 304 T 400 304 T 412 304" 
          stroke="url(#waveGradient)" stroke-width="2" fill="none" opacity="0.3"/>
  </g>
  
  <!-- Central "P" letter with modern styling -->
  <g transform="translate(256, 256)">
    <!-- Letter P with rounded corners -->
    <path d="M -60 -80 L -60 80 L -40 80 L -40 10 L 20 10 Q 50 10 65 -5 Q 80 -20 80 -50 Q 80 -80 65 -95 Q 50 -110 20 -110 Z M -40 -90 L 20 -90 Q 35 -90 42.5 -82.5 Q 50 -75 50 -60 Q 50 -45 42.5 -37.5 Q 35 -30 20 -30 L -40 -30 Z" 
          fill="url(#letterGradient)" 
          stroke="rgba(255,255,255,0.2)" 
          stroke-width="1"/>
  </g>
  
  <!-- Subtle medical cross elements -->
  <g opacity="0.2">
    <!-- Small cross top right -->
    <g transform="translate(380, 140)">
      <rect x="-8" y="-2" width="16" height="4" fill="white" rx="2"/>
      <rect x="-2" y="-8" width="4" height="16" fill="white" rx="2"/>
    </g>
    
    <!-- Small cross bottom left -->
    <g transform="translate(140, 380)">
      <rect x="-6" y="-1.5" width="12" height="3" fill="white" rx="1.5"/>
      <rect x="-1.5" y="-6" width="3" height="12" fill="white" rx="1.5"/>
    </g>
  </g>
  
  <!-- Subtle pulse rings -->
  <g opacity="0.1">
    <circle cx="256" cy="256" r="200" stroke="white" stroke-width="1" fill="none"/>
    <circle cx="256" cy="256" r="180" stroke="white" stroke-width="0.5" fill="none"/>
  </g>
  
  <!-- Zen/healing dots -->
  <g opacity="0.4">
    <circle cx="340" cy="200" r="3" fill="white"/>
    <circle cx="180" cy="320" r="2" fill="white"/>
    <circle cx="350" cy="350" r="2.5" fill="white"/>
    <circle cx="160" cy="180" r="2" fill="white"/>
  </g>
</svg>