<svg width="120" height="120" viewBox="0 0 120 120" fill="none" xmlns="http://www.w3.org/2000/svg">
  <!-- Background Circle with Gradient -->
  <defs>
    <linearGradient id="mainGradient" x1="0%" y1="0%" x2="100%" y2="100%">
      <stop offset="0%" style="stop-color:#667eea;stop-opacity:1" />
      <stop offset="50%" style="stop-color:#764ba2;stop-opacity:1" />
      <stop offset="100%" style="stop-color:#f093fb;stop-opacity:1" />
    </linearGradient>
    <linearGradient id="letterGradient" x1="0%" y1="0%" x2="100%" y2="100%">
      <stop offset="0%" style="stop-color:#ffffff;stop-opacity:1" />
      <stop offset="100%" style="stop-color:#f8f9ff;stop-opacity:0.9" />
    </linearGradient>
    <filter id="glow">
      <feGaussianBlur stdDeviation="3" result="coloredBlur"/>
      <feMerge> 
        <feMergeNode in="coloredBlur"/>
        <feMergeNode in="SourceGraphic"/>
      </feMerge>
    </filter>
  </defs>
  
  <!-- Main Circle Background -->
  <circle cx="60" cy="60" r="58" fill="url(#mainGradient)" filter="url(#glow)"/>
  
  <!-- Subtle Inner Ring -->
  <circle cx="60" cy="60" r="48" fill="none" stroke="rgba(255,255,255,0.2)" stroke-width="1"/>
  
  <!-- Stylized "P" for PainEase -->
  <path d="M35 25 L35 95 M35 25 L65 25 Q80 25 80 40 Q80 55 65 55 L35 55" 
        stroke="url(#letterGradient)" 
        stroke-width="8" 
        stroke-linecap="round" 
        stroke-linejoin="round" 
        fill="none"/>
  
  <!-- Healing Wave Elements -->
  <path d="M25 75 Q35 70 45 75 Q55 80 65 75 Q75 70 85 75 Q95 80 105 75" 
        stroke="rgba(255,255,255,0.6)" 
        stroke-width="2" 
        stroke-linecap="round" 
        fill="none"/>
  
  <path d="M20 85 Q30 80 40 85 Q50 90 60 85 Q70 80 80 85 Q90 90 100 85" 
        stroke="rgba(255,255,255,0.4)" 
        stroke-width="2" 
        stroke-linecap="round" 
        fill="none"/>
  
  <!-- Subtle Plus Symbol for Medical/Health -->
  <path d="M85 35 L85 45 M80 40 L90 40" 
        stroke="rgba(255,255,255,0.7)" 
        stroke-width="3" 
        stroke-linecap="round"/>
  
  <!-- Small Healing Dots -->
  <circle cx="25" cy="35" r="2" fill="rgba(255,255,255,0.6)"/>
  <circle cx="95" cy="25" r="1.5" fill="rgba(255,255,255,0.5)"/>
  <circle cx="30" cy="50" r="1" fill="rgba(255,255,255,0.4)"/>
  <circle cx="90" cy="60" r="1" fill="rgba(255,255,255,0.4)"/>
</svg>